<svg xmlns="http://www.w3.org/2000/svg" width="512" height="512" viewBox="0 0 512 512">
  <defs>
    <linearGradient id="bg" x1="0" y1="0" x2="0" y2="512" gradientUnits="userSpaceOnUse">
      <stop offset="0" stop-color="#FFFFFF"></stop>
      <stop offset="1" stop-color="#EEF2F8"></stop>
    </linearGradient>
    <linearGradient id="g1" x1="126" y1="172" x2="386" y2="220" gradientUnits="userSpaceOnUse">
      <stop offset="0" stop-color="#16307A"></stop>
      <stop offset="1" stop-color="#274BB5"></stop>
    </linearGradient>
    <linearGradient id="g2" x1="126" y1="232" x2="386" y2="280" gradientUnits="userSpaceOnUse">
      <stop offset="0" stop-color="#2563EB"></stop>
      <stop offset="1" stop-color="#3F8BF7"></stop>
    </linearGradient>
    <linearGradient id="g3" x1="126" y1="292" x2="386" y2="340" gradientUnits="userSpaceOnUse">
      <stop offset="0" stop-color="#54AEF4"></stop>
      <stop offset="1" stop-color="#8AD4FB"></stop>
    </linearGradient>
    <filter id="soft" x="-20%" y="-20%" width="140%" height="140%">
      <feDropShadow dx="0" dy="6" stdDeviation="9" flood-color="#1E3A8A" flood-opacity="0.18"></feDropShadow>
    </filter>
  </defs>
  <path d="M 512.00 256.00 L 511.92 326.12 L 511.68 348.49 L 511.29 364.72 L 510.73 377.89 L 510.02 389.15 L 509.15 399.06 L 508.11 407.95 L 506.91 416.04 L 505.55 423.47 L 504.02 430.33 L 502.32 436.71 L 500.45 442.66 L 498.41 448.23 L 496.19 453.46 L 493.78 458.37 L 491.19 462.98 L 488.41 467.32 L 485.43 471.41 L 482.25 475.25 L 478.86 478.86 L 475.25 482.25 L 471.41 485.43 L 467.32 488.41 L 462.98 491.19 L 458.37 493.78 L 453.46 496.19 L 448.23 498.41 L 442.66 500.45 L 436.71 502.32 L 430.33 504.02 L 423.47 505.55 L 416.04 506.91 L 407.95 508.11 L 399.06 509.15 L 389.15 510.02 L 377.89 510.73 L 364.72 511.29 L 348.49 511.68 L 326.12 511.92 L 256.00 512.00 L 185.88 511.92 L 163.51 511.68 L 147.28 511.29 L 134.11 510.73 L 122.85 510.02 L 112.94 509.15 L 104.05 508.11 L 95.96 506.91 L 88.53 505.55 L 81.67 504.02 L 75.29 502.32 L 69.34 500.45 L 63.77 498.41 L 58.54 496.19 L 53.63 493.78 L 49.02 491.19 L 44.68 488.41 L 40.59 485.43 L 36.75 482.25 L 33.14 478.86 L 29.75 475.25 L 26.57 471.41 L 23.59 467.32 L 20.81 462.98 L 18.22 458.37 L 15.81 453.46 L 13.59 448.23 L 11.55 442.66 L 9.68 436.71 L 7.98 430.33 L 6.45 423.47 L 5.09 416.04 L 3.89 407.95 L 2.85 399.06 L 1.98 389.15 L 1.27 377.89 L 0.71 364.72 L 0.32 348.49 L 0.08 326.12 L 0.00 256.00 L 0.08 185.88 L 0.32 163.51 L 0.71 147.28 L 1.27 134.11 L 1.98 122.85 L 2.85 112.94 L 3.89 104.05 L 5.09 95.96 L 6.45 88.53 L 7.98 81.67 L 9.68 75.29 L 11.55 69.34 L 13.59 63.77 L 15.81 58.54 L 18.22 53.63 L 20.81 49.02 L 23.59 44.68 L 26.57 40.59 L 29.75 36.75 L 33.14 33.14 L 36.75 29.75 L 40.59 26.57 L 44.68 23.59 L 49.02 20.81 L 53.63 18.22 L 58.54 15.81 L 63.77 13.59 L 69.34 11.55 L 75.29 9.68 L 81.67 7.98 L 88.53 6.45 L 95.96 5.09 L 104.05 3.89 L 112.94 2.85 L 122.85 1.98 L 134.11 1.27 L 147.28 0.71 L 163.51 0.32 L 185.88 0.08 L 256.00 0.00 L 326.12 0.08 L 348.49 0.32 L 364.72 0.71 L 377.89 1.27 L 389.15 1.98 L 399.06 2.85 L 407.95 3.89 L 416.04 5.09 L 423.47 6.45 L 430.33 7.98 L 436.71 9.68 L 442.66 11.55 L 448.23 13.59 L 453.46 15.81 L 458.37 18.22 L 462.98 20.81 L 467.32 23.59 L 471.41 26.57 L 475.25 29.75 L 478.86 33.14 L 482.25 36.75 L 485.43 40.59 L 488.41 44.68 L 491.19 49.02 L 493.78 53.63 L 496.19 58.54 L 498.41 63.77 L 500.45 69.34 L 502.32 75.29 L 504.02 81.67 L 505.55 88.53 L 506.91 95.96 L 508.11 104.05 L 509.15 112.94 L 510.02 122.85 L 510.73 134.11 L 511.29 147.28 L 511.68 163.51 L 511.92 185.88 L 512.00 256.00 Z" fill="url(#bg)"></path>
  <path d="M 512.00 256.00 L 511.92 326.12 L 511.68 348.49 L 511.29 364.72 L 510.73 377.89 L 510.02 389.15 L 509.15 399.06 L 508.11 407.95 L 506.91 416.04 L 505.55 423.47 L 504.02 430.33 L 502.32 436.71 L 500.45 442.66 L 498.41 448.23 L 496.19 453.46 L 493.78 458.37 L 491.19 462.98 L 488.41 467.32 L 485.43 471.41 L 482.25 475.25 L 478.86 478.86 L 475.25 482.25 L 471.41 485.43 L 467.32 488.41 L 462.98 491.19 L 458.37 493.78 L 453.46 496.19 L 448.23 498.41 L 442.66 500.45 L 436.71 502.32 L 430.33 504.02 L 423.47 505.55 L 416.04 506.91 L 407.95 508.11 L 399.06 509.15 L 389.15 510.02 L 377.89 510.73 L 364.72 511.29 L 348.49 511.68 L 326.12 511.92 L 256.00 512.00 L 185.88 511.92 L 163.51 511.68 L 147.28 511.29 L 134.11 510.73 L 122.85 510.02 L 112.94 509.15 L 104.05 508.11 L 95.96 506.91 L 88.53 505.55 L 81.67 504.02 L 75.29 502.32 L 69.34 500.45 L 63.77 498.41 L 58.54 496.19 L 53.63 493.78 L 49.02 491.19 L 44.68 488.41 L 40.59 485.43 L 36.75 482.25 L 33.14 478.86 L 29.75 475.25 L 26.57 471.41 L 23.59 467.32 L 20.81 462.98 L 18.22 458.37 L 15.81 453.46 L 13.59 448.23 L 11.55 442.66 L 9.68 436.71 L 7.98 430.33 L 6.45 423.47 L 5.09 416.04 L 3.89 407.95 L 2.85 399.06 L 1.98 389.15 L 1.27 377.89 L 0.71 364.72 L 0.32 348.49 L 0.08 326.12 L 0.00 256.00 L 0.08 185.88 L 0.32 163.51 L 0.71 147.28 L 1.27 134.11 L 1.98 122.85 L 2.85 112.94 L 3.89 104.05 L 5.09 95.96 L 6.45 88.53 L 7.98 81.67 L 9.68 75.29 L 11.55 69.34 L 13.59 63.77 L 15.81 58.54 L 18.22 53.63 L 20.81 49.02 L 23.59 44.68 L 26.57 40.59 L 29.75 36.75 L 33.14 33.14 L 36.75 29.75 L 40.59 26.57 L 44.68 23.59 L 49.02 20.81 L 53.63 18.22 L 58.54 15.81 L 63.77 13.59 L 69.34 11.55 L 75.29 9.68 L 81.67 7.98 L 88.53 6.45 L 95.96 5.09 L 104.05 3.89 L 112.94 2.85 L 122.85 1.98 L 134.11 1.27 L 147.28 0.71 L 163.51 0.32 L 185.88 0.08 L 256.00 0.00 L 326.12 0.08 L 348.49 0.32 L 364.72 0.71 L 377.89 1.27 L 389.15 1.98 L 399.06 2.85 L 407.95 3.89 L 416.04 5.09 L 423.47 6.45 L 430.33 7.98 L 436.71 9.68 L 442.66 11.55 L 448.23 13.59 L 453.46 15.81 L 458.37 18.22 L 462.98 20.81 L 467.32 23.59 L 471.41 26.57 L 475.25 29.75 L 478.86 33.14 L 482.25 36.75 L 485.43 40.59 L 488.41 44.68 L 491.19 49.02 L 493.78 53.63 L 496.19 58.54 L 498.41 63.77 L 500.45 69.34 L 502.32 75.29 L 504.02 81.67 L 505.55 88.53 L 506.91 95.96 L 508.11 104.05 L 509.15 112.94 L 510.02 122.85 L 510.73 134.11 L 511.29 147.28 L 511.68 163.51 L 511.92 185.88 L 512.00 256.00 Z" fill="none" stroke="#DCE3EE" stroke-width="1.5"></path>
  <g fill="none" stroke-width="36" stroke-linecap="round" stroke-linejoin="round" filter="url(#soft)">
    <path d="M 126.00 196.00 C 126.90 196.65, 129.61 198.62, 131.42 199.91 C 133.22 201.20, 135.03 202.48, 136.83 203.71 C 138.64 204.95, 140.44 206.16, 142.25 207.31 C 144.06 208.46, 145.86 209.58, 147.67 210.61 C 149.47 211.64, 151.28 212.63, 153.08 213.52 C 154.89 214.41, 156.69 215.23, 158.50 215.96 C 160.31 216.68, 162.11 217.32, 163.92 217.86 C 165.72 218.40, 167.53 218.84, 169.33 219.18 C 171.14 219.52, 172.94 219.76, 174.75 219.88 C 176.56 220.01, 178.36 220.03, 180.17 219.95 C 181.97 219.86, 183.78 219.67, 185.58 219.37 C 187.39 219.08, 189.19 218.67, 191.00 218.17 C 192.81 217.67, 194.61 217.07, 196.42 216.38 C 198.22 215.69, 200.03 214.90, 201.83 214.04 C 203.64 213.18, 205.44 212.23, 207.25 211.23 C 209.06 210.22, 210.86 209.13, 212.67 208.00 C 214.47 206.87, 216.28 205.67, 218.08 204.45 C 219.89 203.23, 221.69 201.96, 223.50 200.68 C 225.31 199.40, 227.11 198.09, 228.92 196.79 C 230.72 195.48, 232.53 194.16, 234.33 192.87 C 236.14 191.58, 237.94 190.28, 239.75 189.03 C 241.56 187.79, 243.36 186.55, 245.17 185.39 C 246.97 184.22, 248.78 183.08, 250.58 182.02 C 252.39 180.96, 254.19 179.95, 256.00 179.03 C 257.81 178.11, 259.61 177.25, 261.42 176.49 C 263.22 175.73, 265.03 175.05, 266.83 174.48 C 268.64 173.90, 270.44 173.41, 272.25 173.03 C 274.06 172.66, 275.86 172.38, 277.67 172.21 C 279.47 172.04, 281.28 171.97, 283.08 172.01 C 284.89 172.06, 286.69 172.21, 288.50 172.46 C 290.31 172.72, 292.11 173.08, 293.92 173.54 C 295.72 174.00, 297.53 174.56, 299.33 175.22 C 301.14 175.87, 302.94 176.62, 304.75 177.45 C 306.56 178.27, 308.36 179.20, 310.17 180.18 C 311.97 181.16, 313.78 182.22, 315.58 183.33 C 317.39 184.43, 319.19 185.61, 321.00 186.82 C 322.81 188.02, 324.61 189.28, 326.42 190.55 C 328.22 191.82, 330.03 193.13, 331.83 194.43 C 333.64 195.73, 335.44 197.06, 337.25 198.35 C 339.06 199.65, 340.86 200.95, 342.67 202.21 C 344.47 203.47, 346.28 204.72, 348.08 205.90 C 349.89 207.09, 351.69 208.25, 353.50 209.33 C 355.31 210.42, 357.11 211.46, 358.92 212.41 C 360.72 213.36, 362.53 214.25, 364.33 215.04 C 366.14 215.83, 367.94 216.55, 369.75 217.17 C 371.56 217.78, 373.36 218.31, 375.17 218.73 C 376.97 219.15, 378.78 219.47, 380.58 219.68 C 382.39 219.89, 385.10 219.95, 386.00 220.00" stroke="url(#g1)"></path>
    <path d="M 126.00 269.55 C 126.90 270.06, 129.61 271.66, 131.42 272.60 C 133.22 273.54, 135.03 274.42, 136.83 275.20 C 138.64 275.98, 140.44 276.69, 142.25 277.29 C 144.06 277.89, 145.86 278.40, 147.67 278.81 C 149.47 279.21, 151.28 279.52, 153.08 279.72 C 154.89 279.92, 156.69 280.01, 158.50 280.00 C 160.31 279.98, 162.11 279.86, 163.92 279.64 C 165.72 279.41, 167.53 279.07, 169.33 278.64 C 171.14 278.21, 172.94 277.67, 174.75 277.04 C 176.56 276.41, 178.36 275.68, 180.17 274.88 C 181.97 274.07, 183.78 273.17, 185.58 272.21 C 187.39 271.25, 189.19 270.21, 191.00 269.11 C 192.81 268.02, 194.61 266.86, 196.42 265.66 C 198.22 264.47, 200.03 263.22, 201.83 261.96 C 203.64 260.70, 205.44 259.39, 207.25 258.09 C 209.06 256.79, 210.86 255.47, 212.67 254.17 C 214.47 252.87, 216.28 251.56, 218.08 250.29 C 219.89 249.03, 221.69 247.77, 223.50 246.57 C 225.31 245.37, 227.11 244.20, 228.92 243.10 C 230.72 242.00, 232.53 240.95, 234.33 239.98 C 236.14 239.01, 237.94 238.10, 239.75 237.28 C 241.56 236.47, 243.36 235.72, 245.17 235.09 C 246.97 234.45, 248.78 233.89, 250.58 233.45 C 252.39 233.00, 254.19 232.65, 256.00 232.41 C 257.81 232.17, 259.61 232.03, 261.42 232.01 C 263.22 231.98, 265.03 232.06, 266.83 232.24 C 268.64 232.43, 270.44 232.72, 272.25 233.11 C 274.06 233.50, 275.86 234.00, 277.67 234.59 C 279.47 235.18, 281.28 235.88, 283.08 236.65 C 284.89 237.42, 286.69 238.28, 288.50 239.22 C 290.31 240.15, 292.11 241.17, 293.92 242.24 C 295.72 243.30, 297.53 244.45, 299.33 245.62 C 301.14 246.80, 302.94 248.03, 304.75 249.29 C 306.56 250.54, 308.36 251.83, 310.17 253.13 C 311.97 254.42, 313.78 255.75, 315.58 257.05 C 317.39 258.35, 319.19 259.66, 321.00 260.94 C 322.81 262.21, 324.61 263.48, 326.42 264.70 C 328.22 265.91, 330.03 267.11, 331.83 268.23 C 333.64 269.35, 335.44 270.43, 337.25 271.43 C 339.06 272.43, 340.86 273.37, 342.67 274.22 C 344.47 275.06, 346.28 275.84, 348.08 276.52 C 349.89 277.19, 351.69 277.79, 353.50 278.27 C 355.31 278.76, 357.11 279.15, 358.92 279.43 C 360.72 279.71, 362.53 279.89, 364.33 279.96 C 366.14 280.04, 367.94 280.00, 369.75 279.86 C 371.56 279.72, 373.36 279.46, 375.17 279.11 C 376.97 278.76, 378.78 278.30, 380.58 277.75 C 382.39 277.20, 385.10 276.13, 386.00 275.81" stroke="url(#g2)"></path>
    <path d="M 126.00 338.37 C 126.90 338.56, 129.61 339.22, 131.42 339.49 C 133.22 339.75, 135.03 339.92, 136.83 339.98 C 138.64 340.03, 140.44 339.98, 142.25 339.83 C 144.06 339.67, 145.86 339.41, 147.67 339.04 C 149.47 338.68, 151.28 338.20, 153.08 337.64 C 154.89 337.07, 156.69 336.41, 158.50 335.66 C 160.31 334.91, 162.11 334.06, 163.92 333.15 C 165.72 332.24, 167.53 331.24, 169.33 330.19 C 171.14 329.14, 172.94 328.01, 174.75 326.85 C 176.56 325.68, 178.36 324.46, 180.17 323.21 C 181.97 321.97, 183.78 320.68, 185.58 319.39 C 187.39 318.10, 189.19 316.78, 191.00 315.47 C 192.81 314.17, 194.61 312.85, 196.42 311.57 C 198.22 310.29, 200.03 309.01, 201.83 307.79 C 203.64 306.57, 205.44 305.36, 207.25 304.23 C 209.06 303.09, 210.86 301.99, 212.67 300.98 C 214.47 299.96, 216.28 299.00, 218.08 298.13 C 219.89 297.26, 221.69 296.46, 223.50 295.76 C 225.31 295.06, 227.11 294.44, 228.92 293.93 C 230.72 293.42, 232.53 293.00, 234.33 292.69 C 236.14 292.38, 237.94 292.17, 239.75 292.07 C 241.56 291.97, 243.36 291.98, 245.17 292.09 C 246.97 292.21, 248.78 292.43, 250.58 292.75 C 252.39 293.08, 254.19 293.51, 256.00 294.03 C 257.81 294.56, 259.61 295.19, 261.42 295.90 C 263.22 296.61, 265.03 297.43, 266.83 298.31 C 268.64 299.19, 270.44 300.16, 272.25 301.18 C 274.06 302.21, 275.86 303.32, 277.67 304.46 C 279.47 305.60, 281.28 306.81, 283.08 308.04 C 284.89 309.27, 286.69 310.55, 288.50 311.83 C 290.31 313.12, 292.11 314.44, 293.92 315.74 C 295.72 317.04, 297.53 318.37, 299.33 319.65 C 301.14 320.94, 302.94 322.23, 304.75 323.47 C 306.56 324.71, 308.36 325.93, 310.17 327.08 C 311.97 328.24, 313.78 329.36, 315.58 330.40 C 317.39 331.45, 319.19 332.44, 321.00 333.34 C 322.81 334.24, 324.61 335.07, 326.42 335.81 C 328.22 336.55, 330.03 337.20, 331.83 337.75 C 333.64 338.30, 335.44 338.76, 337.25 339.11 C 339.06 339.46, 340.86 339.72, 342.67 339.86 C 344.47 340.00, 346.28 340.04, 348.08 339.96 C 349.89 339.89, 351.69 339.71, 353.50 339.43 C 355.31 339.15, 357.11 338.76, 358.92 338.27 C 360.72 337.79, 362.53 337.19, 364.33 336.52 C 366.14 335.84, 367.94 335.06, 369.75 334.21 C 371.56 333.37, 373.36 332.42, 375.17 331.43 C 376.97 330.43, 378.78 329.35, 380.58 328.22 C 382.39 327.10, 385.10 325.28, 386.00 324.70" stroke="url(#g3)"></path>
  </g>
</svg>